<svg id="7bca0b1b-0367-4ee0-9afc-ecb6f5787a8a" data-name="Layer 1" xmlns="http://www.w3.org/2000/svg" viewBox="0 0 50 44.04">
  <title>bandaid</title>
  <path d="M45.79,27.34l-28-22A11,11,0,1,0,4.21,22.66l28,22A11,11,0,0,0,45.79,27.34Zm-15.4-3.29A1.38,1.38,0,1,1,29,25.43,1.38,1.38,0,0,1,30.39,24.05Zm-2.29-5.2a1.38,1.38,0,1,1-1.38,1.38A1.38,1.38,0,0,1,28.1,18.85Zm-5.86-.49a1.38,1.38,0,1,1-1.38,1.38A1.38,1.38,0,0,1,22.24,18.36ZM6.63,19.58A7.1,7.1,0,1,1,15.41,8.42l6,4.69-8.7,11.22Zm11.51,6.8A1.38,1.38,0,1,1,19.52,25,1.38,1.38,0,0,1,18.14,26.38Zm2.67,4.68a1.38,1.38,0,1,1,1.38-1.38A1.38,1.38,0,0,1,20.81,31.06Zm3.55-4.68A1.38,1.38,0,1,1,25.74,25,1.38,1.38,0,0,1,24.36,26.38ZM24.54,31a1.38,1.38,0,1,1,1.38,1.38A1.38,1.38,0,0,1,24.54,31Zm20,9.39a7.1,7.1,0,0,1-10,1.19l-7-5.52,8.7-11.22,7.09,5.58a7.1,7.1,0,0,1,1.19,10Z" transform="translate(0 -2.98)" />
</svg>
