<svg id="ed5d7439-d9ec-4243-992c-693347139c7f" data-name="Layer 1" xmlns="http://www.w3.org/2000/svg" viewBox="0 0 50 50">
  <title>communication</title>
  <path d="M.27,36.12V19.94A5.33,5.33,0,0,1,5.6,14.62H8.82v3.74H5.6A1.59,1.59,0,0,0,4,19.94V36.07a1.65,1.65,0,0,0,1.64,1.64H8.31v4.2l4.2-4.2H32.32A1.65,1.65,0,0,0,34,36.07V33.31h.61l3.07,3.07a5.32,5.32,0,0,1-5.32,5H14l-6,6.1a1.81,1.81,0,0,1-1.38.61,2,2,0,0,1-2-2V41.34A5.37,5.37,0,0,1,.27,36.12ZM49.73,8.32V24.45a5.38,5.38,0,0,1-4.25,5.22v4.76a2.28,2.28,0,0,1-.62,1.49,2.49,2.49,0,0,1-1.43.51A2,2,0,0,1,42,35.81l-6-6H17.73a5.31,5.31,0,0,1-5.32-5.32V8.32A5.32,5.32,0,0,1,17.73,3H44.35A5.31,5.31,0,0,1,49.73,8.32ZM38.67,18V14.62H29.91l3-3-2.4-2.4-4.92,4.91-2.15,2.15h0l.62.61,1.79,1.8h0l2.51,2.5,2.15,2.15,2.4-2.4-2.15-2.1-.82-.82h7.17Z"/>
</svg>
