<svg id="996a8393-ed56-47fd-a100-5cfa7459ad5c" data-name="Layer 1" xmlns="http://www.w3.org/2000/svg" viewBox="0 0 50 50"><title>couch-plant</title><path d="M49.58,37.61H44V28.32h4.58A.42.42,0,0,0,49,27.9V26a.42.42,0,0,0-.42-.42H46.11l.3-4.43a.42.42,0,0,0-.42-.45H44v-.54l.53-.53a1.32,1.32,0,0,0,1.54-.24,4.06,4.06,0,0,0,.59-2,.42.42,0,0,0-.12-.33.41.41,0,0,0-.33-.12,4.06,4.06,0,0,0-2,.59,1.33,1.33,0,0,0-.19.24v-.49A1.33,1.33,0,0,0,44.89,16a4.06,4.06,0,0,0-1-1.85.43.43,0,0,0-.64,0,4.06,4.06,0,0,0-1,1.85,1.33,1.33,0,0,0,.92,1.26v.49a1.33,1.33,0,0,0-.19-.24,4.06,4.06,0,0,0-2-.59.41.41,0,0,0-.33.12.42.42,0,0,0-.12.33,4.06,4.06,0,0,0,.59,2,1.32,1.32,0,0,0,1.54.24l.53.53v.54h-2a.42.42,0,0,0-.42.45l.3,4.43H38.55a.42.42,0,0,0-.42.42V27.9a.42.42,0,0,0,.42.42h4.58v9.29H33.2a1.2,1.2,0,0,0,.07-.38V36.06h3.44a.42.42,0,0,0,.42-.42V26.82a2.24,2.24,0,0,0-2.24-2.24H32.47V23a2.7,2.7,0,0,0-2.69-2.69H7.47A2.7,2.7,0,0,0,4.78,23v1.56H2.35A2.24,2.24,0,0,0,.12,26.82v8.83a.42.42,0,0,0,.42.42H4v1.17a1.2,1.2,0,0,0,.07.38H.54a.42.42,0,1,0,0,.84h49a.42.42,0,1,0,0-.84ZM44.75,18.09a2.63,2.63,0,0,1,1-.28,2.62,2.62,0,0,1-.28,1,.51.51,0,0,1-.7,0A.5.5,0,0,1,44.75,18.09Zm-1.2-3a2.63,2.63,0,0,1,.5.9.5.5,0,1,1-1,0A2.63,2.63,0,0,1,43.55,15.09Zm-1.9,3.71a2.63,2.63,0,0,1-.28-1,2.62,2.62,0,0,1,1,.28.5.5,0,0,1,0,.7A.51.51,0,0,1,41.65,18.8ZM32.43,37.23a.38.38,0,0,1-.75,0V36.06h.75Zm-26-1.17H30.84v1.17a1.2,1.2,0,0,0,.07.38H6.34a1.2,1.2,0,0,0,.07-.38ZM34.89,25.42a1.4,1.4,0,0,1,1.4,1.4V31.2H32.47V25.42ZM31.63,23v5.41H19V21.16H29.78A1.86,1.86,0,0,1,31.63,23Zm-26,0a1.86,1.86,0,0,1,1.85-1.85H18.21v7.26H5.61V23ZM1,26.82a1.4,1.4,0,0,1,1.4-1.4H4.78V31.2H1ZM4.82,37.23V36.06h.75v1.17a.38.38,0,1,1-.75,0Z" /></svg>
