<svg id="f15658a5-5d1e-4292-8b6c-593d12fcd71d" data-name="Layer 1" xmlns="http://www.w3.org/2000/svg" viewBox="0 0 581.7 105.35">
  <title>damon-smile</title>
  <path d="M0,73H4.17L14.1,94.73,24.07,73h3.86V97.7H25.24V75.43h-.07L15.27,97.7H13L2.77,75.43H2.69V97.7H0Z" style="fill: #0069aa"/>
  <path d="M48.74,79.22c6.42,0,9.27,4.53,9.27,9.45s-2.85,9.46-9.27,9.46-9.27-4.53-9.27-9.46S42.31,79.22,48.74,79.22Zm0,17c4.28,0,6.58-3.37,6.58-7.55s-2.3-7.54-6.58-7.54-6.59,3.37-6.59,7.54S44.45,96.22,48.74,96.22Z" style="fill: #0069aa"/>
  <path d="M69.27,83.68a28.83,28.83,0,0,0-.16-4h2.46v3.47h.08c.89-2,2.57-3.89,5.1-3.89a7.76,7.76,0,0,1,1.71.21v2.34a7.09,7.09,0,0,0-1.79-.21c-3.89,0-5,4-5,7.22V97.7H69.27Z" style="fill: #0069aa"/>
  <path d="M102.27,97.14a17.71,17.71,0,0,1-5.77,1c-6.58,0-9-4-9-9.46s3.35-9.45,8.38-9.45c5.61,0,7.91,4.11,7.91,9v1.13H90.15c0,3.83,2.26,6.91,6.55,6.91a13.84,13.84,0,0,0,5.57-1.35Zm-1.21-9.74c0-3.15-1.4-6.27-5.07-6.27s-5.84,3.29-5.84,6.27Z" style="fill: #0069aa"/>
  <path d="M141.85,81.56h-4.52V93.24c0,1.63.66,3,2.65,3a6.15,6.15,0,0,0,2.26-.43l.15,1.84a9.48,9.48,0,0,1-3,.5c-4.36,0-4.51-2.73-4.51-6V81.56H131V79.64h3.9V75.29l2.45-.78v5.13h4.52Z" style="fill: #0069aa"/>
  <path d="M154.43,71.14h2.46V82.69H157a6.82,6.82,0,0,1,6.19-3.47c5.34,0,6.78,3.22,6.78,7.68V97.7h-2.46V86.94c0-3.12-.66-5.81-4.71-5.81-4.36,0-5.88,3.75-5.88,6.91V97.7h-2.46Z" style="fill: #0069aa"/>
  <path d="M194.91,94.8h-.08c-1.09,2.16-3.85,3.33-6.31,3.33-5.65,0-6.54-3.47-6.54-5.1,0-6.06,7.09-6.34,12.23-6.34h.47v-.92c0-3.08-1.21-4.64-4.52-4.64a11.41,11.41,0,0,0-5.85,1.49V80.46a16.85,16.85,0,0,1,5.85-1.24c4.91,0,7,2,7,6.73v8a22.6,22.6,0,0,0,.2,3.78h-2.42Zm-.23-6.2H194c-4.25,0-9.31.39-9.31,4.36,0,2.37,1.87,3.26,4.12,3.26,5.77,0,5.89-4.57,5.89-6.52Z" style="fill: #0069aa"/>
  <path d="M210.38,83.89a38.36,38.36,0,0,0-.16-4.25h2.38v3.23h.08c.82-1.63,2.3-3.65,6.42-3.65,4.91,0,6.78,3,6.78,6.94V97.7h-2.45v-11c0-3.4-1.33-5.6-4.71-5.6-4.48,0-5.89,3.58-5.89,6.59v10h-2.45Z" style="fill: #0069aa"/>
  <path d="M256.16,95.08a12.52,12.52,0,0,0,5.18,1.14c2.33,0,4.4-1.17,4.4-3.22,0-4.29-9.55-3.62-9.55-8.86,0-3.58,3.2-4.92,6.47-4.92a17.12,17.12,0,0,1,4.91.81l-.23,2a12.65,12.65,0,0,0-4.41-.85c-2.53,0-4.28.71-4.28,3,0,3.36,9.78,2.94,9.78,8.86,0,3.82-3.94,5.13-6.94,5.13a16.27,16.27,0,0,1-5.57-.85Z" style="fill: #0069aa"/>
  <path d="M288.8,81.56h-4.52V93.24c0,1.63.67,3,2.65,3a6.11,6.11,0,0,0,2.26-.43l.16,1.84a9.54,9.54,0,0,1-3,.5c-4.37,0-4.52-2.73-4.52-6V81.56h-3.9V79.64h3.9V75.29l2.45-.78v5.13h4.52Z" style="fill: #0069aa"/>
  <path d="M300.61,83.68a28.83,28.83,0,0,0-.16-4h2.46v3.47H303c.9-2,2.57-3.89,5.11-3.89a7.76,7.76,0,0,1,1.71.21v2.34a7.15,7.15,0,0,0-1.79-.21c-3.9,0-4.95,4-4.95,7.22V97.7h-2.45Z" style="fill: #0069aa"/>
  <path d="M332.4,94.8h-.08c-1.09,2.16-3.86,3.33-6.31,3.33-5.65,0-6.55-3.47-6.55-5.1,0-6.06,7.09-6.34,12.23-6.34h.47v-.92c0-3.08-1.21-4.64-4.52-4.64a11.37,11.37,0,0,0-5.84,1.49V80.46a16.8,16.8,0,0,1,5.84-1.24c4.91,0,7,2,7,6.73v8a23.78,23.78,0,0,0,.19,3.78H332.4Zm-.24-6.2h-.7c-4.24,0-9.31.39-9.31,4.36,0,2.37,1.87,3.26,4.13,3.26,5.77,0,5.88-4.57,5.88-6.52Z" style="fill: #0069aa"/>
  <path d="M349.54,74.83h-2.46v-3h2.46Zm-2.46,4.81h2.46V97.7h-2.46Z" style="fill: #0069aa"/>
  <path d="M378.87,96.22c0,5-2.49,9.13-9.31,9.13a22.69,22.69,0,0,1-6-.95l.2-2.23a14.53,14.53,0,0,0,5.84,1.27c6.31,0,6.86-4.18,6.86-9.28h-.08a6.22,6.22,0,0,1-6,3.54c-6.35,0-8.37-5-8.37-9,0-5.49,2.33-9.45,8.18-9.45,2.65,0,4.36.32,6.19,2.48h.08V79.64h2.45Zm-8.49-.43c4.44,0,6-3.82,6-7.12,0-4.35-1.4-7.54-5.88-7.54-4.68,0-5.88,4-5.88,7.54S366.21,95.79,370.38,95.79Z" style="fill: #0069aa"/>
  <path d="M391.42,71.14h2.45V82.69H394a6.83,6.83,0,0,1,6.2-3.47c5.33,0,6.77,3.22,6.77,7.68V97.7h-2.45V86.94c0-3.12-.66-5.81-4.71-5.81-4.37,0-5.89,3.75-5.89,6.91V97.7h-2.45Z" style="fill: #0069aa"/>
  <path d="M429.05,81.56h-4.52V93.24c0,1.63.67,3,2.65,3a6.11,6.11,0,0,0,2.26-.43l.16,1.84a9.54,9.54,0,0,1-3,.5c-4.36,0-4.52-2.73-4.52-6V81.56h-3.9V79.64h3.9V75.29l2.45-.78v5.13h4.52Z" style="fill: #0069aa"/>
  <path d="M466.1,81.56h-4.52V93.24c0,1.63.67,3,2.65,3a6.11,6.11,0,0,0,2.26-.43l.16,1.84a9.54,9.54,0,0,1-3,.5c-4.36,0-4.52-2.73-4.52-6V81.56h-3.89V79.64h3.89V75.29l2.45-.78v5.13h4.52Z" style="fill: #0069aa"/>
  <path d="M491.23,97.14a17.61,17.61,0,0,1-5.76,1c-6.59,0-9-4-9-9.46s3.35-9.45,8.37-9.45c5.61,0,7.91,4.11,7.91,9v1.13H479.12c0,3.83,2.26,6.91,6.54,6.91a13.84,13.84,0,0,0,5.57-1.35ZM490,87.4c0-3.15-1.4-6.27-5.06-6.27s-5.84,3.29-5.84,6.27Z" style="fill: #0069aa"/>
  <path d="M518.11,97.14a17.61,17.61,0,0,1-5.76,1c-6.59,0-9-4-9-9.46s3.35-9.45,8.38-9.45c5.61,0,7.9,4.11,7.9,9v1.13H506c0,3.83,2.26,6.91,6.54,6.91a13.84,13.84,0,0,0,5.57-1.35Zm-1.2-9.74c0-3.15-1.41-6.27-5.07-6.27S506,84.42,506,87.4Z" style="fill: #0069aa"/>
  <path d="M539.46,81.56h-4.52V93.24c0,1.63.67,3,2.65,3a6.11,6.11,0,0,0,2.26-.43l.16,1.84a9.54,9.54,0,0,1-3,.5c-4.36,0-4.52-2.73-4.52-6V81.56h-3.9V79.64h3.9V75.29l2.45-.78v5.13h4.52Z" style="fill: #0069aa"/>
  <path d="M552.05,71.14h2.45V82.69h.08a6.82,6.82,0,0,1,6.19-3.47c5.34,0,6.78,3.22,6.78,7.68V97.7H565.1V86.94c0-3.12-.66-5.81-4.72-5.81-4.36,0-5.88,3.75-5.88,6.91V97.7h-2.45Z" style="fill: #0069aa"/>
  <path d="M569.42,72h-2.06V71.3h5.12V72h-2.06v5.25h-1Zm4.47-.69h1.61l1.92,4.58,1.93-4.58H581v5.94h-1V72.08h0l-2.18,5.16h-.67l-2.17-5.16h0v5.16h-1Z" style="fill: #0069aa"/>
  <g>
    <path d="M23.11,15.4h5.6c8.15,0,10.19,5.27,10.19,15.45,0,9.84-1.87,15.28-10.1,15.28H23.11ZM.36,60.9H32.79c17,0,29.88-7,29.88-29.46,0-24-12-29.79-28.95-29.79H.36Z" style="fill: #0069aa"/>
    <path d="M93.81,14.38H94l6.45,19.44H87.27Zm-36,46.52H80.48l3.66-12.81h19.17l3.91,12.81h23.85L109.94,1.65H78.62Z" style="fill: #0069aa"/>
    <path d="M133.26,1.65h33.61l7.73,32.43h.17l7.64-32.43h33.53V60.9H195.56l-.33-46.52h-.17L183.43,60.9H164.5L153.21,14.38h-.34l-.25,46.52H133.26Z" style="fill: #0069aa"/>
    <path d="M243.43,31.27c0-5.51.68-16.37,9.09-16.37,8.66,0,9.25,10.86,9.34,16.37-.09,6.37-.34,16.39-9.34,16.39C244.37,47.66,243.43,37.64,243.43,31.27Zm42.19,0c0-19.86-12.4-30.63-33.1-30.63s-32.85,10.77-32.85,30.63c0,20.2,12.13,30.64,32.85,30.64S285.62,51.47,285.62,31.27Z" style="fill: #0069aa"/>
    <path d="M288.93,1.65h34l11,41.77h.17V1.65H353.6V60.9H320.17L308.62,18h-.16v43H288.93Z" style="fill: #0069aa"/>
  </g>
  <path d="M418,1.92h10.4l19.08,49.32L466.67,1.92h9.75v58H470.8V7.65h-.16L450,59.9h-4.81L423.82,7.65h-.16V59.9H418Z" style="fill: #00a4e4"/>
  <path d="M485.06,1.92h6v58h-6Z" style="fill: #00a4e4"/>
  <path d="M499.38,1.92H506v53h31.8v5H499.38Z" style="fill: #00a4e4"/>
  <path d="M542.83,1.92h37.72v5H549.42V27.59h29.8v5h-29.8V54.92H581.7v5H542.83Z" style="fill: #00a4e4"/>
  <path d="M372.66,52.42c4.39,2.19,9.52,3.46,16.48,3.46,9.2,0,16.79-3.72,16.79-12.07,0-11.57-34.23-13-34.23-28.45C371.7,5.91,382.18,0,395.34,0A55.48,55.48,0,0,1,410,1.94l-1.18,5.32c-3.32-1.44-8.56-2.19-13.59-2.19-7.7,0-16.15,2.53-16.15,10.12,0,11.82,34.23,11.9,34.23,29.13,0,11.9-12.94,16.62-24.49,16.62a52.74,52.74,0,0,1-16.91-2.53Z" style="fill: #00a4e4"/>
  <path d="M360.16,2.6H358.1V1.92h5.12V2.6h-2.06V7.85h-1Zm4.47-.68h1.61l1.92,4.57,1.93-4.57h1.61V7.85h-1V2.69h0l-2.18,5.16h-.67l-2.17-5.16h0V7.85h-1Z" style="fill: #0069aa"/>
</svg>
