<svg id="01cb0677-4535-42f8-b77d-f05f7100734f" data-name="Layer 1" xmlns="http://www.w3.org/2000/svg" viewBox="0 0 50 30.98">
  <title>faces</title>
  <path d="M48.87,11.71c-2.69.25-5.38.75-8-.19-1.82-.62-3.57-1.68-5.26-.18a1,1,0,0,0-.38.68,9.87,9.87,0,0,0-6.14,6.69,9.78,9.78,0,0,0,18.91,5,9.86,9.86,0,0,0-1.06-7.56,8.09,8.09,0,0,0,1.82-1.69,5,5,0,0,0,1.19-2.06C50.12,11.52,49.94,11.65,48.87,11.71ZM46.74,23.4a8.49,8.49,0,1,1-11.46-10A4.2,4.2,0,0,0,36,14.59a8.59,8.59,0,0,0,6.33,2.93,7.7,7.7,0,0,0,3.44-.68A8,8,0,0,1,46.74,23.4Z"/>
  <path d="M40.42,24.77a13.6,13.6,0,0,1-5.2-1.37.94.94,0,0,0-1.38.87c0,1.25,1.13,2.69,3.07,3.25s3.63-.12,4.32-1.25A1.06,1.06,0,0,0,40.42,24.77Z"/>
  <circle cx="42.87" cy="20.99" r="1.31"/>
  <circle cx="34.97" cy="18.89" r="1.31"/>
  <path d="M23.32,14a13.75,13.75,0,0,1-5.19,1.38.93.93,0,0,0-.76,1.43A3.91,3.91,0,0,0,21.7,18c2-.56,3.06-1.93,3.06-3.25A1,1,0,0,0,23.32,14Z"/>
  <circle cx="23.58" cy="9.46" r="1.31"/>
  <circle cx="15.69" cy="11.59" r="1.31"/>
  <path d="M29.4,9.21a9.73,9.73,0,0,0-12-6.87l-.57.18v.19h0v.06h0v.07a1.21,1.21,0,0,1-.75.81l-2.44.75-.25.06-.13.13-.93,2.68a1,1,0,0,1-.76.69h-.75A9.75,9.75,0,0,0,22.38,21.15,9.66,9.66,0,0,0,29.4,9.21ZM22.13,20a8.52,8.52,0,0,1-10.39-6,8.24,8.24,0,0,1,.06-4.62L19.07,7.4,19.82,4,22.2,6.59l3.57-.94a8.41,8.41,0,0,1,2.37,3.94A8.53,8.53,0,0,1,22.13,20Z"/>
  <path d="M8.8,5.09l2.12,2.18a.49.49,0,0,0,.82-.18L12.8,4l3.07-.93a.46.46,0,0,0,.19-.75L13.93.15a.48.48,0,0,0-.81.19L12.05,3.4,9,4.34A.45.45,0,0,0,8.8,5.09Z"/>
  <path d="M10.24,7.52l-2-2A1.12,1.12,0,0,1,8,4.46a1.23,1.23,0,0,1,.76-.81l2.81-.88.07-.12a2.93,2.93,0,0,0-1.94-.5c-1.26.12-2.45,1.44-3.45,2.94S4.16,7.65,3,7.71.66,6.84.15,6.84c-.25,0-.18.43.13,1.25a14.87,14.87,0,0,0,1.88,3.18A5.16,5.16,0,0,0,5.1,13.46c1,.13,2-.62,2.88-2s1.63-2.87,2.26-3.94Z"/>
</svg>
