<svg id="6edededd-9056-4506-80af-e682161245c0" data-name="Layer 1" xmlns="http://www.w3.org/2000/svg" viewBox="0 0 50 50">
  <title>goog-01</title>
  <path d="M23.44,3.43A8.28,8.28,0,0,1,26,6.36a8.78,8.78,0,0,1,.94,4.21A10.23,10.23,0,0,1,26,14.9a10,10,0,0,1-2.55,3.38,11.76,11.76,0,0,1-3.94,2.18,15.9,15.9,0,0,1-5.14.77c-.47,0-.93,0-1.39,0s-1,0-1.51,0a1.65,1.65,0,0,0-1.33.71,2.56,2.56,0,0,0-.55,1.6,2.9,2.9,0,0,0,1.2,2.45,6.56,6.56,0,0,0,3.78,1l4.78.06c3.61.05,6.27.72,8,2s2.55,3.39,2.55,6.27a12.29,12.29,0,0,1-1.58,6.46A13.41,13.41,0,0,1,24.25,46a17,17,0,0,1-5.52,2.34,26,26,0,0,1-5.88.71q-6.07,0-9.46-2.35A7.21,7.21,0,0,1,0,40.45a7.16,7.16,0,0,1,1.71-5,11.61,11.61,0,0,1,4.62-3v-.13a5.91,5.91,0,0,1-2.68-1.76,4.48,4.48,0,0,1-1-3,6.45,6.45,0,0,1,1.64-4.12,8.3,8.3,0,0,1,4.36-2.7v-.12a11.25,11.25,0,0,1-6.07-3.47A10,10,0,0,1,.39,10.5a9.32,9.32,0,0,1,1-4.37A9.19,9.19,0,0,1,4.2,2.89a13.39,13.39,0,0,1,4.32-2A20.58,20.58,0,0,1,14.08.15c.77,0,1.57,0,2.39.1s1.61.12,2.39.16c.56,0,1.13.08,1.71.1s1.22,0,1.9,0l3.36,0c1.17,0,2.33,0,3.49,0,0,.26-.08.52-.1.78s0,.51,0,.77,0,.51,0,.77.06.51.1.77L23.64,3.3Zm-1,35.29a6.4,6.4,0,0,0-.65-3.06,4.45,4.45,0,0,0-1.84-1.83A8.36,8.36,0,0,0,17,33a31.22,31.22,0,0,0-3.94-.22,11.56,11.56,0,0,0-4.65.64,4.67,4.67,0,0,0-1.65,1.87A7.21,7.21,0,0,0,5.88,39a7.18,7.18,0,0,0,.68,3.25A6.34,6.34,0,0,0,8.4,44.5a8.4,8.4,0,0,0,2.68,1.38,10.75,10.75,0,0,0,3.26.49,8.75,8.75,0,0,0,3.36-.62,7.58,7.58,0,0,0,2.55-1.67,7,7,0,0,0,1.61-2.44A7.77,7.77,0,0,0,22.41,38.72ZM13.82,2.79q-4.39,0-4.39,8.48a13.89,13.89,0,0,0,.39,3.57,7.55,7.55,0,0,0,1,2.35,3.86,3.86,0,0,0,1.35,1.28,3.27,3.27,0,0,0,1.52.39A3.39,3.39,0,0,0,16.86,17c.68-1.24,1-3.34,1-6.3s-.39-4.95-1.16-6.13A3.42,3.42,0,0,0,13.82,2.79Z"/>
  <path d="M43.18,11.21V18H50v3.1H43.18v6.78H40.07V21.09H33.25V18h6.82V11.21Z"/>
</svg>
