<svg id="155a01ce-ed5c-4470-97b6-c466ae3604bb" data-name="Layer 1" xmlns="http://www.w3.org/2000/svg" viewBox="0 0 50 50">
  <title>helmet</title>
  <g>
    <path d="M36.07,34.47a4.46,4.46,0,0,0-2.17,1.66c-.44.53-.78.94-1.22,1s-2.51.18-3.51.23h-.38v2.11l.41,0c.9,0,3.32-.18,3.78-.25a4.12,4.12,0,0,0,2.54-1.74c.53-.63.83-.94,1.22-1l2,6.1a2.67,2.67,0,0,0,1.68,2c.05,0,5.4,1.55,6.17,1.55h0a2.49,2.49,0,0,0,2.16-2c.18-.79.82-12.95.79-13.62a2.37,2.37,0,0,0-2.45-2.23l-10.76.49-2.08-6.25c3.19-.52,6.15-1,6.84-1.1A1.06,1.06,0,0,0,42,20.22a1,1,0,0,0-1.21-.87c-.1,0-9.69,1.52-11.13,1.84a6.52,6.52,0,0,0-.63.18l-.27.09v2.31l.56-.26a3.75,3.75,0,0,1,.8-.26c.3-.07,1.06-.2,2.06-.37C32.21,22.88,35.68,33.32,36.07,34.47Zm11.19-4.08c.19,0,.24.22.24.22,0,.16,0,1.34-.13,2.92-3.4.28-7.15.59-9.15.74-.37-1.11-.76-2.26-1.14-3.41l10.17-.47ZM40.76,41.9c-.07-.2-.85-2.53-1.86-5.57l8.36-.68c-.19,3.51-.43,7.62-.51,8a.63.63,0,0,1-.2.36c-.56-.05-4-1-5.14-1.28C41,42.64,41,42.53,40.76,41.9Zm5.85,3.83" />
    <polygon points="26.32 31.36 36.49 30.89 36.39 28.78 25.63 29.28 26.32 31.36" />
    <path d="M39.92,19.91a64.08,64.08,0,0,0-2.18-6.27C36.5,10.65,29.13.22,14.27,5.2-1.06,10.34.05,25.26.72,27.81S3.08,35,3.08,35a1.54,1.54,0,0,0,.27,1.74c2.56,2.33,3.92,1.34,12.31,6.73,2.28,1.46,5.18,2.16,9.29,1.32s8.48-4.54,7.33-9.38-2-8.7-.42-11.15C34.78,19.6,40.35,21.49,39.92,19.91ZM14.5,25.54a.72.72,0,0,1-1.09-.81L14.56,21,11.38,18.5a.72.72,0,0,1-.25-.8.75.75,0,0,1,.68-.49l4,0,1.31-3.82a.72.72,0,0,1,1.36,0l1.31,3.82,4,0a.73.73,0,0,1,.68.49.72.72,0,0,1-.24.8l-.94.74L21,21l1.15,3.76a.71.71,0,0,1-.26.79.72.72,0,0,1-.83,0l-3.28-2.23ZM21.92,38.1a3.54,3.54,0,1,1,3.38-3.7A3.54,3.54,0,0,1,21.92,38.1Z" />
  </g>
</svg>
