<svg id="d978b7d4-f301-433e-bc7c-378ab6523374" data-name="Layer 1" xmlns="http://www.w3.org/2000/svg" viewBox="0 0 50 50">
  <title>insurance-01</title>
  <g>
    <path d="M25.15,0,25,0,5.29,4.39V29.28a20.12,20.12,0,0,0,6.06,14.54A20.45,20.45,0,0,0,20.87,49l3.95.95.28,0,4-1A20,20,0,0,0,44.71,29.28V4.39ZM43.32,29.28a18.63,18.63,0,0,1-14.51,18.4L25,48.6l-3.81-.92a19,19,0,0,1-8.87-4.86A18.71,18.71,0,0,1,6.68,29.27V5.5L25,1.42,43.32,5.5Z" style="stroke: #fff;stroke-miterlimit: 10"/>
    <g>
      <circle cx="25.77" cy="16.34" r="6.78" style="stroke: #fff;stroke-miterlimit: 10"/>
      <path d="M37.83,35.31V32.92a7.56,7.56,0,0,0-7.54-7.54h-9a7.56,7.56,0,0,0-7.54,7.54v2.39Z" style="stroke: #fff;stroke-miterlimit: 10"/>
    </g>
  </g>
</svg>
