<svg id="fb7f6e19-aedd-4d4e-b8a0-523c7c28c8af" data-name="Layer 1" xmlns="http://www.w3.org/2000/svg" viewBox="0 0 763.97 178.64"><defs><style>.\38 8c14b91-e52e-4e97-acb3-05aab8ac3570{fill:#1268a9;}.\33 8329150-75c0-45b4-92e7-4f3bc9746441{fill:#1882c2;}.\38 6052720-f96d-4d88-9f62-26c29010379c{fill:#23acea;}.\38 c371f5f-fbf4-40f4-a4b9-408540c57fcd{fill:#1c6ca2;}</style></defs><title>invisalign</title><path class="88c14b91-e52e-4e97-acb3-05aab8ac3570" d="M103.53,101.23s-1,35.1,49,49C138.07,100.28,103.53,101.23,103.53,101.23Z"/><path class="88c14b91-e52e-4e97-acb3-05aab8ac3570" d="M75.1,73s1-35.09-49-49C40.57,74,75.1,73,75.1,73Z"/><path class="88c14b91-e52e-4e97-acb3-05aab8ac3570" d="M89.4,109.34s-25.49,24.14,0,69.3C114.5,133.08,89.4,109.34,89.4,109.34Z"/><path class="88c14b91-e52e-4e97-acb3-05aab8ac3570" d="M89.23,69.3s25.49-24.14,0-69.3C64.14,45.55,89.23,69.3,89.23,69.3Z"/><path class="88c14b91-e52e-4e97-acb3-05aab8ac3570" d="M109.34,89.23s24.13,25.49,69.29,0C133.08,64.14,109.34,89.23,109.34,89.23Z"/><path class="88c14b91-e52e-4e97-acb3-05aab8ac3570" d="M69.3,89.4S45.16,63.92,0,89.4C45.55,114.5,69.3,89.4,69.3,89.4Z"/><path class="88c14b91-e52e-4e97-acb3-05aab8ac3570" d="M103.41,72.92s35.09,1,49-49C102.46,38.39,103.41,72.92,103.41,72.92Z"/><path class="88c14b91-e52e-4e97-acb3-05aab8ac3570" d="M75.22,101.36s-35.09-1-49,49C76.17,135.89,75.22,101.36,75.22,101.36Z"/><path class="38329150-75c0-45b4-92e7-4f3bc9746441" d="M142.18,126.45c-16.27-25.81-38.65-25.22-38.65-25.22s-.61,22.9,25.51,39A64.55,64.55,0,0,0,142.18,126.45Z"/><path class="38329150-75c0-45b4-92e7-4f3bc9746441" d="M75.1,73s.55-21-22.37-37A64.92,64.92,0,0,0,38,50.12C54.06,73.62,75.1,73,75.1,73Z"/><path class="38329150-75c0-45b4-92e7-4f3bc9746441" d="M89.4,109.34s-16,15.14-10,43.85a65.32,65.32,0,0,0,19.74,0C105.16,124.29,89.4,109.34,89.4,109.34Z"/><path class="38329150-75c0-45b4-92e7-4f3bc9746441" d="M89.23,69.3s16-15.15,10-43.86a65.25,65.25,0,0,0-19.73,0C73.47,54.35,89.23,69.3,89.23,69.3Z"/><path class="38329150-75c0-45b4-92e7-4f3bc9746441" d="M109.34,89.23s15.14,16,43.85,10a65.32,65.32,0,0,0,0-19.74C124.29,73.48,109.34,89.23,109.34,89.23Z"/><path class="38329150-75c0-45b4-92e7-4f3bc9746441" d="M69.3,89.4s-15.14-16-43.86-10a65.32,65.32,0,0,0,0,19.74C54.35,105.16,69.3,89.4,69.3,89.4Z"/><path class="38329150-75c0-45b4-92e7-4f3bc9746441" d="M103.41,72.92s21.3.57,37.28-22.78a64.49,64.49,0,0,0-14.77-14.07C102.86,52.14,103.41,72.92,103.41,72.92Z"/><path class="38329150-75c0-45b4-92e7-4f3bc9746441" d="M75.22,101.36s-22.66-.6-38.78,25.09a65.08,65.08,0,0,0,13.15,13.82C75.84,124,75.22,101.36,75.22,101.36Z"/><path class="86052720-f96d-4d88-9f62-26c29010379c" d="M127.32,110.11c-12.42-9.18-23.79-8.88-23.79-8.88s-.29,11.83,9.23,24.48A43.32,43.32,0,0,0,127.32,110.11Z"/><path class="86052720-f96d-4d88-9f62-26c29010379c" d="M75.1,73s.24-10-7.09-21.41A43.5,43.5,0,0,0,53.17,65.46C64.84,73.3,75.1,73,75.1,73Z"/><path class="86052720-f96d-4d88-9f62-26c29010379c" d="M89.4,109.34s-7.9,7.51-10.49,22a42,42,0,0,0,20.85,0C97.25,116.78,89.4,109.34,89.4,109.34Z"/><path class="86052720-f96d-4d88-9f62-26c29010379c" d="M89.23,69.3s7.91-7.52,10.5-22A44.18,44.18,0,0,0,89.31,46a43.34,43.34,0,0,0-10.44,1.32C81.39,61.85,89.23,69.3,89.23,69.3Z"/><path class="86052720-f96d-4d88-9f62-26c29010379c" d="M131.31,78.87c-14.53,2.52-22,10.36-22,10.36s7.52,7.91,22,10.5a43.65,43.65,0,0,0,1.31-10.41A42.8,42.8,0,0,0,131.31,78.87Z"/><path class="86052720-f96d-4d88-9f62-26c29010379c" d="M69.3,89.4s-7.52-7.91-22-10.49a41.71,41.71,0,0,0,0,20.86C61.85,97.24,69.3,89.4,69.3,89.4Z"/><path class="86052720-f96d-4d88-9f62-26c29010379c" d="M110.58,51.6c-7.41,11.41-7.17,21.32-7.17,21.32s10.35.26,22-7.49A43.56,43.56,0,0,0,110.58,51.6Z"/><path class="86052720-f96d-4d88-9f62-26c29010379c" d="M75.22,101.36s-11.47-.31-23.9,8.77a43.5,43.5,0,0,0,14.57,15.59C75.52,113.07,75.22,101.36,75.22,101.36Z"/><path class="88c14b91-e52e-4e97-acb3-05aab8ac3570" d="M493.91,119.08v-9.56a29,29,0,0,1-9.42,6.66,27.67,27.67,0,0,1-11.1,2.25q-13.8,0-22.9-9.22t-9.12-23.1a33.18,33.18,0,0,1,2.28-12.27,30.76,30.76,0,0,1,6.5-10.19,30,30,0,0,1,10.09-7.17,31.88,31.88,0,0,1,12.48-2.32,29.62,29.62,0,0,1,11.58,2.23,29,29,0,0,1,9.61,6.77V55.79h12.18v63.29ZM454,86a20.16,20.16,0,0,0,5.77,14.64,19,19,0,0,0,14.14,5.91,18.37,18.37,0,0,0,13.46-5.93,19.22,19.22,0,0,0,5.82-13.89,20.17,20.17,0,0,0-5.78-14.5,18.29,18.29,0,0,0-13.71-6.06A19.68,19.68,0,0,0,454,86Z"/><path class="88c14b91-e52e-4e97-acb3-05aab8ac3570" d="M623.21,146.58c-13.31,6.23-34.81-3.87-34.81-3.87L593.63,131a32.26,32.26,0,0,0,24.51,3.31C631.8,128.86,630.57,117,630.57,117v-7.49a29.07,29.07,0,0,1-9.43,6.66,27.66,27.66,0,0,1-11.09,2.25q-13.78,0-22.91-9.22T578,86.11a33.18,33.18,0,0,1,2.28-12.27,30.63,30.63,0,0,1,6.51-10.19,29.92,29.92,0,0,1,10.09-7.17,31.85,31.85,0,0,1,12.48-2.32,29.52,29.52,0,0,1,11.56,2.23,29.05,29.05,0,0,1,9.63,6.77V55.79h12.18V117C642.75,129.82,636.62,140.31,623.21,146.58ZM590.64,86a20.08,20.08,0,0,0,5.77,14.64,19,19,0,0,0,14.13,5.91A18.37,18.37,0,0,0,624,100.65a19.26,19.26,0,0,0,5.82-13.89,20.21,20.21,0,0,0-5.78-14.5,18.31,18.31,0,0,0-13.71-6.06A19.68,19.68,0,0,0,590.64,86Z"/><path class="88c14b91-e52e-4e97-acb3-05aab8ac3570" d="M671.67,119.06H660V55.38h10.74v6.95a23,23,0,0,1,7.95-6,22.33,22.33,0,0,1,9.52-1.93q12.07,0,18.53,7.11t6.46,20.36v37.23H701.24V84.23q0-9.81-3.63-14.55t-11.2-4.74c-5.51,0-8.55,1.86-11,5.59s-3.71,9.86-3.71,18.42Z"/><path class="86052720-f96d-4d88-9f62-26c29010379c" d="M249.8,119.06H238.11V55.38h10.74v6.95a23,23,0,0,1,8-6,22.34,22.34,0,0,1,9.53-1.93q12.07,0,18.53,7.11t6.45,20.36v37.23H279.37V84.23q0-9.81-3.62-14.55t-11.21-4.74c-5.51,0-8.55,1.86-11,5.59S249.8,80.39,249.8,89Z"/><path class="88c14b91-e52e-4e97-acb3-05aab8ac3570" d="M554.77,119V55h13.32v64Z"/><path class="88c14b91-e52e-4e97-acb3-05aab8ac3570" d="M552.15,35.1a9.28,9.28,0,1,1,9.28,9.28A9.28,9.28,0,0,1,552.15,35.1Z"/><path class="88c14b91-e52e-4e97-acb3-05aab8ac3570" d="M523.48,119V26.51H536.8V119Z"/><path class="86052720-f96d-4d88-9f62-26c29010379c" d="M365,119V55h13.33v64Z"/><path class="86052720-f96d-4d88-9f62-26c29010379c" d="M362.36,35.1a9.28,9.28,0,1,1,9.28,9.28A9.28,9.28,0,0,1,362.36,35.1Z"/><path class="86052720-f96d-4d88-9f62-26c29010379c" d="M206.82,119V55h13.33v64Z"/><path class="86052720-f96d-4d88-9f62-26c29010379c" d="M204.2,35.1a9.28,9.28,0,1,1,9.28,9.28A9.29,9.29,0,0,1,204.2,35.1Z"/><polygon class="86052720-f96d-4d88-9f62-26c29010379c" points="295.2 55.03 310.33 55.03 326.49 90.11 344.03 55.03 359.15 55.03 326.15 119 295.2 55.03"/><path class="86052720-f96d-4d88-9f62-26c29010379c" d="M414.27,81.29c-4.76-1.53-11.09-4-11.09-7.64,0-4,2.71-6.41,8.07-7.14,4.59-.63,10.08,2.09,11.46,3.42l6.53-10.16c-4.66-3.05-12.33-5.88-19.84-4.86-11.67,1.6-18.91,8.78-18.91,18.74,0,12.41,14.75,17.15,19.6,18.7,7.66,2.45,10.37,4.54,10.37,8,0,6.49-8.5,7-11.1,7-4.91,0-11.84-3.12-14.1-4.32l-6.39,10.12c1.13.61,11.27,5.92,20.49,5.92,11.46,0,23.81-5.86,23.81-18.71S419.43,83,414.27,81.29Z"/><path class="8c371f5f-fbf4-40f4-a4b9-408540c57fcd" d="M750.25,54.52A13.72,13.72,0,1,0,764,68.23,13.74,13.74,0,0,0,750.25,54.52ZM761.5,68.23A11.26,11.26,0,1,1,750.25,57,11.28,11.28,0,0,1,761.5,68.23Z"/><path class="88c14b91-e52e-4e97-acb3-05aab8ac3570" d="M744.92,61.28a30.83,30.83,0,0,1,4.13-.29c2.3,0,3.81.36,4.86,1.13a3.08,3.08,0,0,1,1.32,2.56c0,1.76-1.42,2.94-3.16,3.43v0a3.64,3.64,0,0,1,2.45,2.73,20.32,20.32,0,0,0,1.27,3.71h-2.24a14.78,14.78,0,0,1-1.09-3.22c-.49-1.88-1.4-2.57-3.35-2.63h-2V74.6h-2.15Zm2.15,6.13h2.21c2.29,0,3.76-1,3.76-2.56,0-1.74-1.56-2.5-3.83-2.5a12.37,12.37,0,0,0-2.14.15Z"/></svg>