<svg id="fa82be59-129b-4951-9ed5-e13dcb8c73f6" data-name="Layer 1" xmlns="http://www.w3.org/2000/svg" viewBox="0 0 150 31.15">
  <title>matt_logo_small</title>
  <g>
    <path d="M23.52,16.63V14.32c0-3.12-.95-5.47-4.22-5.47a7,7,0,0,0-5.13,2.75,3.63,3.63,0,0,0-3.89-2.75,6.31,6.31,0,0,0-4.77,2.64,15.84,15.84,0,0,0-.63-2.64L0,9.76v.78c2.42,0,2.9.58,2.9,4.25v1.84c0,3.67-.48,4.29-2.9,4.29v.77H7.78v-.77c-2,0-2.27-.48-2.27-4.29V14.24C5.51,12,8,10.57,9.29,10.57c1.9,0,2.64,1.54,2.64,3.93v2.13c0,3.89-.3,4.29-2.31,4.29v.77h7.19v-.77c-2.06,0-2.31-.4-2.31-4.29V14.24c0-2.27,2.57-3.67,3.81-3.67,1.91,0,2.61,1.54,2.61,3.93v2.13c0,3.89-.26,4.29-2.28,4.29v.77h7.78v-.77C24,20.92,23.52,20.3,23.52,16.63Z" style="fill: #231f20"/>
    <path d="M39.45,20.81c-.55,0-.84-.51-.84-1.43V13.84c0-3.49-1.47-5-5-5-2.35,0-4.66,1.17-4.66,2.93a1.27,1.27,0,1,0,2.53,0c0-1.17,1.25-1.76,2.09-1.76,2.1,0,2.46,1.1,2.46,3.86-4.18.73-7.81,2.09-7.81,5.21a3.06,3.06,0,0,0,3.3,3.08c1.47,0,2.79-.59,4.59-2.2a2.31,2.31,0,0,0,2.49,2.13A3.48,3.48,0,0,0,41,21l-.51-.7A1.67,1.67,0,0,1,39.45,20.81Zm-3.45-2c-1.69,1.5-2.57,1.76-3.34,1.76a1.74,1.74,0,0,1-1.72-1.87C30.94,17,32.52,15.82,36,15Z" style="fill: #231f20"/>
    <path d="M48.41,20.85c-1.18,0-1.65-.92-1.65-2.68V10.76H50V9.47H46.76v-4H45.51c-.26,2.39-1.07,4-3.27,4.44v.89h1.91v7.41c0,2.86,1.39,4.15,3.41,4.15a5.68,5.68,0,0,0,3.86-2.13l-.63-.63A3.93,3.93,0,0,1,48.41,20.85Z" style="fill: #231f20"/>
    <path d="M59.23,20.85c-1.17,0-1.65-.92-1.65-2.68V10.76h3.2V9.47h-3.2v-4H56.33c-.25,2.39-1.06,4-3.26,4.44v.89H55v7.41c0,2.86,1.39,4.15,3.41,4.15a5.64,5.64,0,0,0,3.85-2.13l-.62-.63A4,4,0,0,1,59.23,20.85Z" style="fill: #231f20"/>
    <path d="M69.77,16.63V8.85l-5.51.91v.78c2.42,0,2.9.58,2.9,4.25v1.84c0,3.67-.48,4.29-2.9,4.29v.77h8.41v-.77C70.21,20.92,69.77,20.3,69.77,16.63Z" style="fill: #231f20"/>
    <path d="M68.45,5.25A1.64,1.64,0,1,0,66.83,3.6,1.63,1.63,0,0,0,68.45,5.25Z" style="fill: #231f20"/>
    <path d="M86,20.81c-.56,0-.85-.51-.85-1.43V13.84c0-3.49-1.47-5-5-5-2.35,0-4.66,1.17-4.66,2.93a1.27,1.27,0,1,0,2.53,0c0-1.17,1.25-1.76,2.1-1.76,2.09,0,2.46,1.1,2.46,3.86-4.19.73-7.82,2.09-7.82,5.21a3.06,3.06,0,0,0,3.3,3.08c1.47,0,2.79-.59,4.59-2.2a2.31,2.31,0,0,0,2.49,2.13A3.52,3.52,0,0,0,87.57,21l-.52-.7A1.64,1.64,0,0,1,86,20.81Zm-3.45-2c-1.69,1.5-2.57,1.76-3.34,1.76a1.74,1.74,0,0,1-1.73-1.87c0-1.62,1.58-2.83,5.07-3.64Z" style="fill: #231f20"/>
    <path d="M97.33,20.77c-3,0-4.44-1.94-4.44-4.88,0-3.37,1.58-5.87,3.52-5.87.66,0,1.32.37,1.32,1.58a1.45,1.45,0,0,0,1.43,1.47,1.54,1.54,0,0,0,1.62-1.58c0-1.36-1.32-2.64-4.37-2.64a6.92,6.92,0,0,0-6.49,7,6.11,6.11,0,0,0,6.49,6.43,7.5,7.5,0,0,0,5.47-2.43l-.62-.8A6,6,0,0,1,97.33,20.77Z" style="fill: #231f20"/>
    <path d="M108.15,5.25a1.64,1.64,0,1,0-1.61-1.65A1.63,1.63,0,0,0,108.15,5.25Z" style="fill: #231f20"/>
    <path d="M109.48,16.63V8.85L104,9.76v.78c2.42,0,2.9.58,2.9,4.25v1.84c0,3.67-.48,4.29-2.9,4.29v.77h8.41v-.77C109.92,20.92,109.48,20.3,109.48,16.63Z" style="fill: #231f20"/>
    <path d="M121.18,8.85c-4.07,0-7.41,3-7.41,6.71s3.34,6.76,7.41,6.76,7.42-3.05,7.42-6.76S125.26,8.85,121.18,8.85Zm0,12c-3,0-4.44-2.38-4.44-5.32s1.43-5.32,4.44-5.32,4.44,2.39,4.44,5.32S124.23,20.88,121.18,20.88Z" style="fill: #231f20"/>
    <path d="M142.59,0c-.36,0-.5.18-.5.54,3.56,3.74,5.54,8.56,5.54,15s-2,11.29-5.54,15c0,.36.14.51.5.54C147,28.24,150,22.3,150,15.58S147,2.91,142.59,0Z" style="fill: #231f20"/>
    <path d="M136.07,9.16a1.79,1.79,0,0,0-1.79,1.89,1.74,1.74,0,0,0,1.79,1.76,1.69,1.69,0,0,0,1.8-1.76A1.8,1.8,0,0,0,136.07,9.16Z" style="fill: #231f20"/>
    <path d="M136.07,18.59a1.79,1.79,0,0,0-1.79,1.89,1.74,1.74,0,0,0,1.79,1.76,1.7,1.7,0,0,0,1.8-1.76A1.8,1.8,0,0,0,136.07,18.59Z" style="fill: #231f20"/>
  </g>
</svg>
