<svg id="f56b3b52-0bb6-4543-8fc9-66bd23413317" data-name="Foreground" xmlns="http://www.w3.org/2000/svg" viewBox="0 0 498.17 121.18">
  <title>matt_logo</title>
  <g>
    <path d="M78.31,94.58H62.16a.71.71,0,0,0-.71.71v2.1a.71.71,0,0,0,.71.71h6.11v22a.74.74,0,0,0,.71.71h2.51a.74.74,0,0,0,.71-.71v-22h6.11a.71.71,0,0,0,.71-.71v-2.1A.71.71,0,0,0,78.31,94.58Z" />
    <path d="M107.22,94.58h-2.51a.71.71,0,0,0-.71.71v10.45H90.33V95.29a.71.71,0,0,0-.71-.71H87.11a.73.73,0,0,0-.71.71v24.8a.73.73,0,0,0,.71.71h2.51a.71.71,0,0,0,.71-.71V109.26H104v10.83a.71.71,0,0,0,.71.71h2.51a.74.74,0,0,0,.71-.71V95.29A.74.74,0,0,0,107.22,94.58Z" />
    <path d="M131.47,94.28a13,13,0,0,0-1.4-.08,13.49,13.49,0,0,0,0,27h0a13.48,13.48,0,0,0,1.37-26.9ZM120.4,107.73A9.82,9.82,0,0,1,130.1,98c.33,0,.65,0,1,0a9.85,9.85,0,0,1,8.74,9.73,9.71,9.71,0,0,1-19.41,0Z" />
    <path d="M162.93,94.65a12.26,12.26,0,0,0-1.36-.07H153a.71.71,0,0,0-.67.71v24.8a.71.71,0,0,0,.67.71h8.65a13.11,13.11,0,0,0,1.33-26.15Zm-6.8,3.49h5c.34,0,.67,0,1,0a9.56,9.56,0,0,1-1,19h-4.92Z" />
    <path d="M196.42,94.28a13,13,0,0,0-1.4-.08,13.49,13.49,0,0,0,0,27h0a13.48,13.48,0,0,0,1.37-26.9Zm-11.07,13.45a9.82,9.82,0,0,1,9.7-9.78c.33,0,.65,0,1,0a9.85,9.85,0,0,1,8.74,9.73,9.71,9.71,0,0,1-19.41,0Z" />
    <path d="M238.31,94.58h-2.43a.71.71,0,0,0-.71.71V113h0l-16.25-18.8h-1a.7.7,0,0,0-.71.68v25.21a.73.73,0,0,0,.71.71h2.39a.71.71,0,0,0,.71-.71V101.85h0l16.26,19.33h1a.7.7,0,0,0,.71-.68V95.29A.73.73,0,0,0,238.31,94.58Z" />
    <path d="M263.26,94.58H247.12a.71.71,0,0,0-.71.71v2.1a.71.71,0,0,0,.71.71h6.1v22a.74.74,0,0,0,.71.71h2.51a.74.74,0,0,0,.71-.71v-22h6.11a.71.71,0,0,0,.71-.71v-2.1A.71.71,0,0,0,263.26,94.58Z" />
    <path d="M274.57,94.58h-2.51a.74.74,0,0,0-.71.71v24.8a.74.74,0,0,0,.71.71h2.51a.74.74,0,0,0,.71-.71V95.29A.74.74,0,0,0,274.57,94.58Z" />
    <path d="M304.94,114.85a.62.62,0,0,0-.42-.15.8.8,0,0,0-.51.18,10,10,0,0,1-6.43,2.47,9.72,9.72,0,0,1,0-19.43,8.44,8.44,0,0,1,.87,0,10.26,10.26,0,0,1,5.58,2.46.68.68,0,0,0,.51.25.53.53,0,0,0,.46-.25l1.65-1.68a.7.7,0,0,0,0-1,13,13,0,0,0-7.71-3.42c-.44,0-.9-.07-1.38-.07a13.49,13.49,0,1,0,0,27h0a12.88,12.88,0,0,0,9.1-3.64.71.71,0,0,0,0-1Z" />
    <path d="M322.25,105.71c-3.11-1.28-4.76-2.59-4.76-4.72,0-1.39,1.08-3.36,4.21-3.37,2.16,0,4.75,1.72,5,1.87a1,1,0,0,0,.44.14.92.92,0,0,0,.94-.52l.94-1.42a.89.89,0,0,0-.23-1.27,12.71,12.71,0,0,0-6.28-2.19q-.34,0-.72,0c-5.95,0-8.2,4-8.2,6.93,0,4.35,3,6.33,6.82,8s5.65,3,5.65,5.2c0,1.91-1.64,3.48-4.21,3.48-2.87,0-5.72-2.39-5.94-2.58a.81.81,0,0,0-.39-.16.94.94,0,0,0-1,.46c-.33.49-.63,1-1,1.54a.79.79,0,0,0,.23,1.2,12.1,12.1,0,0,0,8.05,3H322c4.87,0,8.35-3.19,8.35-7.08C330.3,109.53,326.59,107.47,322.25,105.71Z" />
    <path d="M14.22,94.2A13.42,13.42,0,0,0,1,105a14.36,14.36,0,0,0-.27,2.73,13.37,13.37,0,0,0,13.45,13.45h0a13.49,13.49,0,1,0,0-27Zm-9.7,13.53a9.7,9.7,0,0,1,.33-2.48A9.81,9.81,0,0,1,14.22,98a9.74,9.74,0,1,1-9.7,9.78Z" />
    <path d="M55.5,102.59a8.08,8.08,0,0,0-8.17-8H37.14a.72.72,0,0,0-.66.44.86.86,0,0,0,0,.27v24.8a.71.71,0,0,0,.71.71h2.44a.71.71,0,0,0,.49-.21.72.72,0,0,0,.22-.5v-9.55h5.65l5,9.92a.7.7,0,0,0,.6.34h2.93a.85.85,0,0,0,.4-.1.73.73,0,0,0,.24-1L50,110.2a9.6,9.6,0,0,0,2.24-1.26A7.89,7.89,0,0,0,55.5,102.59ZM47,107.32H40.36v-9.1H47a4.59,4.59,0,0,1,4.57,4.45A4.64,4.64,0,0,1,50.23,106,4.54,4.54,0,0,1,47,107.32Z" />
  </g>
  <g>
    <path d="M78.13,55.22V47.54c0-10.36-3.17-18.16-14-18.16-7.19,0-14.26,5.12-17.06,9.14-1.71-5.6-5.49-9.14-12.92-9.14-7.07,0-12.56,4.63-15.85,8.78a48.82,48.82,0,0,0-2.07-8.78L0,32.43V35c8,0,9.63,1.95,9.63,14.14v6.09C9.63,67.41,8,69.48,0,69.48V72H25.84V69.48c-6.7,0-7.56-1.58-7.56-14.26V47.3c0-7.56,8.29-12.19,12.56-12.19,6.34,0,8.77,5.12,8.77,13v7.07c0,12.92-1,14.26-7.68,14.26V72H55.82V69.48c-6.82,0-7.67-1.34-7.67-14.26V47.3c0-7.56,8.53-12.19,12.67-12.19,6.34,0,8.66,5.12,8.66,13v7.07c0,12.92-.86,14.26-7.56,14.26V72H87.76V69.48C79.71,69.48,78.13,67.41,78.13,55.22Z" />
    <path d="M131,69.12c-1.83,0-2.8-1.71-2.8-4.76V46c0-11.58-4.88-16.58-16.7-16.58-7.8,0-15.48,3.9-15.48,9.75a4.21,4.21,0,1,0,8.41,0c0-3.9,4.14-5.85,6.94-5.85,6.95,0,8.17,3.66,8.17,12.8-13.89,2.44-26,7-26,17.31,0,6.46,5,10.24,11,10.24,4.87,0,9.26-1.95,15.23-7.32.61,4.39,3.54,7.07,8.29,7.07a11.6,11.6,0,0,0,8.05-3.77l-1.71-2.32A5.58,5.58,0,0,1,131,69.12Zm-11.46-6.83c-5.61,5-8.53,5.85-11.09,5.85-3,0-5.73-2.31-5.73-6.21,0-5.37,5.24-9.39,16.82-12.07Z" />
    <path d="M160.77,69.24c-3.9,0-5.49-3-5.49-8.9V35.72h10.61V31.45H155.28V18.05h-4.14c-.85,7.92-3.54,13.16-10.85,14.74v2.93h6.34V60.34c0,9.51,4.63,13.78,11.34,13.78,4,0,9.38-2.93,12.79-7.07L168.69,65C165.89,67.66,163,69.24,160.77,69.24Z" />
    <path d="M196.73,69.24c-3.9,0-5.49-3-5.49-8.9V35.72h10.6V31.45h-10.6V18.05H187.1c-.86,7.92-3.54,13.16-10.85,14.74v2.93h6.34V60.34c0,9.51,4.63,13.78,11.33,13.78,4,0,9.39-2.93,12.8-7.07L204.65,65C201.84,67.66,198.92,69.24,196.73,69.24Z" />
    <path d="M231.71,55.22V29.38l-18.29,3.05V35c8.05,0,9.63,1.95,9.63,14.14v6.09c0,12.19-1.58,14.26-9.63,14.26V72h27.92V69.48C233.17,69.48,231.71,67.41,231.71,55.22Z" />
    <path d="M227.32,17.44A5.43,5.43,0,1,0,222,12,5.44,5.44,0,0,0,227.32,17.44Z" />
    <path d="M285.7,69.12c-1.83,0-2.8-1.71-2.8-4.76V46c0-11.58-4.88-16.58-16.7-16.58-7.8,0-15.48,3.9-15.48,9.75a4.21,4.21,0,1,0,8.41,0c0-3.9,4.15-5.85,6.95-5.85,6.95,0,8.17,3.66,8.17,12.8-13.9,2.44-26,7-26,17.31,0,6.46,5,10.24,11,10.24,4.88,0,9.27-1.95,15.24-7.32.61,4.39,3.53,7.07,8.29,7.07a11.56,11.56,0,0,0,8-3.77l-1.7-2.32A5.63,5.63,0,0,1,285.7,69.12Zm-11.45-6.83c-5.61,5-8.54,5.85-11.1,5.85-3,0-5.73-2.31-5.73-6.21,0-5.37,5.25-9.39,16.83-12.07Z" />
    <path d="M323.24,69c-10,0-14.74-6.46-14.74-16.21,0-11.22,5.24-19.51,11.7-19.51,2.19,0,4.38,1.22,4.38,5.24a4.79,4.79,0,0,0,4.76,4.88,5.1,5.1,0,0,0,5.36-5.24c0-4.51-4.39-8.78-14.5-8.78-9.75,0-21.58,9-21.58,23.41,0,12.18,8.05,21.33,21.58,21.33a24.92,24.92,0,0,0,18.16-8.05l-2.07-2.68A19.91,19.91,0,0,1,323.24,69Z" />
    <path d="M359.2,17.44A5.43,5.43,0,1,0,353.84,12,5.44,5.44,0,0,0,359.2,17.44Z" />
    <path d="M363.59,55.22V29.38L345.3,32.43V35c8.05,0,9.63,1.95,9.63,14.14v6.09c0,12.19-1.58,14.26-9.63,14.26V72h27.92V69.48C365.05,69.48,363.59,67.41,363.59,55.22Z" />
    <path d="M402.47,29.38c-13.53,0-24.62,10-24.62,22.31s11.09,22.43,24.62,22.43S427.09,64,427.09,51.69,416,29.38,402.47,29.38Zm0,40c-10,0-14.75-7.92-14.75-17.67S392.47,34,402.47,34s14.75,7.93,14.75,17.68S412.58,69.36,402.47,69.36Z" />
    <!-- <path d="M473.56,0c-1.19.12-1.67.6-1.67,1.79,11.83,12.43,18.4,28.44,18.4,49.94s-6.57,37.52-18.4,49.94c0,1.2.48,1.67,1.67,1.79,14.7-9.67,24.61-29.39,24.61-51.73S488.26,9.68,473.56,0Z" />
    <path d="M451.92,30.42a6,6,0,0,0-6,6.29,5.79,5.79,0,0,0,6,5.85,5.61,5.61,0,0,0,6-5.85A6,6,0,0,0,451.92,30.42Z" />
    <path d="M451.92,61.72A6,6,0,0,0,446,68a5.78,5.78,0,0,0,6,5.85,5.61,5.61,0,0,0,6-5.85A6,6,0,0,0,451.92,61.72Z" /> -->
  </g>
</svg>
