<svg id="bfbc8d62-c193-4023-84b3-b8024fbcb5f9" data-name="Layer 1" xmlns="http://www.w3.org/2000/svg" viewBox="0 0 50 50">
  <title>party</title>
  <g>
    <path d="M4.51,9.51A1.72,1.72,0,1,0,2.79,7.79,1.73,1.73,0,0,0,4.51,9.51Z" style="fill: none"/>
    <polygon points="21.75 21.52 19.84 28.31 26.47 26.7 21.75 21.52" style="fill: none"/>
    <path d="M24.11,37.08a5.22,5.22,0,0,0,4.05-8.53L19,30.78a5.47,5.47,0,0,0-.11,1.07A5.23,5.23,0,0,0,24.11,37.08Z" style="fill: none"/>
    <polygon points="5.81 28.01 12.16 28.01 8.98 22.51 5.81 28.01"/>
    <path d="M49.25,6.93a1.09,1.09,0,0,0-1.55,0,2.92,2.92,0,0,0-.83,2.38c0,.21,0,.4.05.57.09.72.08.92-.14,1.15s-.43.23-1.15.14l-.57-.05a2.9,2.9,0,0,0-3.21,3.21c0,.21,0,.4,0,.57.09.71.08.92-.14,1.15s-.43.22-1.14.14L40,16.14a2.92,2.92,0,0,0-2.38.82,1.1,1.1,0,0,0,1.56,1.56c.22-.22.43-.23,1.14-.15a3.25,3.25,0,0,0,3-.77,3.27,3.27,0,0,0,.78-3c-.09-.72-.08-.93.14-1.15s.43-.23,1.15-.15a3.23,3.23,0,0,0,2.95-.77,3.26,3.26,0,0,0,.78-2.95c-.09-.72-.08-.93.14-1.15A1.09,1.09,0,0,0,49.25,6.93Z"/>
    <polygon points="49.03 37.09 48.06 36.12 46.27 37.91 44.48 36.12 43.51 37.09 42.54 38.06 44.33 39.85 42.54 41.65 44.48 43.59 46.27 41.8 48.06 43.59 50 41.65 48.21 39.85 50 38.06 49.03 37.09"/>
    <polygon points="2.53 47.66 3.9 47.66 5.28 47.66 5.28 45.13 7.81 45.13 7.81 43.76 7.81 42.39 5.28 42.39 5.28 39.85 2.53 39.85 2.53 42.39 0 42.39 0 45.13 2.53 45.13 2.53 47.66"/>
    <polygon points="33.91 1.95 32.11 3.74 30.32 1.95 28.38 3.89 30.17 5.68 28.38 7.47 30.32 9.41 32.11 7.62 33.91 9.41 35.85 7.47 34.05 5.68 35.85 3.89 33.91 1.95"/>
    <path d="M19,4.72a2.18,2.18,0,1,0-2.18-2.18A2.19,2.19,0,0,0,19,4.72Z"/>
    <path d="M43,25.15a2.18,2.18,0,1,0,2.18,2.18A2.18,2.18,0,0,0,43,25.15Z"/>
    <path d="M4.51,11.71A3.92,3.92,0,1,0,.6,7.79,3.93,3.93,0,0,0,4.51,11.71Zm0-5.64A1.72,1.72,0,1,1,2.79,7.79,1.73,1.73,0,0,1,4.51,6.07Z"/>
    <path d="M17,33.83a7.56,7.56,0,0,0,7.13,5.45,7.43,7.43,0,0,0,7.43-7.43c0-3.84-3.31-6.48-5.69-9.1-1.72-1.87-3.43-3.75-5.14-5.62h0l-1.44,5.14c-.6,2.14-1.24,4.28-1.89,6.41A8.46,8.46,0,0,0,17,33.83Zm4.77-12.31,4.72,5.18-6.62,1.61ZM19,30.78l9.17-2.23a5.22,5.22,0,0,1-4.05,8.53,5.23,5.23,0,0,1-5.23-5.23A5.47,5.47,0,0,1,19,30.78Z"/>
    <path d="M35.26,49.32a8.44,8.44,0,0,0-8.42-8.43H21.38A8.44,8.44,0,0,0,13,49.32h2.2a6.24,6.24,0,0,1,6.22-6.23h5.46a6.24,6.24,0,0,1,6.23,6.23h2.19Z"/>
  </g>
</svg>
