<svg id="f40515f8-8ee5-4654-9800-8ab2d1957827" data-name="Layer 1" xmlns="http://www.w3.org/2000/svg" viewBox="0 0 50 50">
  <title>personal</title>
  <g>
    <path d="M47.27,32.07l-7.1-6.79a8.79,8.79,0,0,0-6.05-2.43H20.24a2.71,2.71,0,0,0,0,5.41H30.3a1.69,1.69,0,0,1,0,3.38H13.17a1.65,1.65,0,0,1-1-.36L4.93,25.51A2.63,2.63,0,0,0,1.19,26a2.73,2.73,0,0,0,.45,3.8l11.1,8.88a2.63,2.63,0,0,0,1.64.58h20a1.64,1.64,0,0,1,1.16.48l8.57,8.47a2.84,2.84,0,0,0,3.13.6A2.94,2.94,0,0,0,49,46.06V36.37a6.19,6.19,0,0,0-1.73-4.3Z" style="fill: none;stroke-linecap: round;stroke-linejoin: round;stroke-width: 2px"/>
    <path d="M33.79,1.75a5.82,5.82,0,0,0-8.31,0,5.82,5.82,0,0,0-8.31,0,6.06,6.06,0,0,0,0,8.47l7.57,7.67a1,1,0,0,0,1.47,0l7.57-7.67a6.07,6.07,0,0,0,0-8.47Z"/>
  </g>
</svg>
