<svg id="13b88da6-d3e8-40ec-80aa-78b4b57946bb" data-name="Layer 1" xmlns="http://www.w3.org/2000/svg" viewBox="0 0 50 50">
  <title>phone</title>
  <path d="M48.63,36.09c-2.69-2.14-5.52-4.25-8.26-6.33a5,5,0,0,0-3.91-.63A5.65,5.65,0,0,0,34.06,31c-2,2.2-3.75,2.76-5.44,2.6a8.29,8.29,0,0,1-4.83-2.64L19.1,26.24a8.21,8.21,0,0,1-2.63-4.83c-.16-1.68.39-3.46,2.59-5.43a5.66,5.66,0,0,0,1.85-2.4,5,5,0,0,0-.63-3.92C18.2,6.92,16.09,4.1,14,1.4A4.36,4.36,0,0,0,9.64.2,8.25,8.25,0,0,0,6.46,2.33C2.52,6.12-.86,11.29.2,17.65c.89,5.14,4.49,10.11,10,15.62l6.56,6.57c5.51,5.51,10.49,9.11,15.63,10,5.32.8,10.74-1.5,15.32-6.27a8,8,0,0,0,2.12-3.18A4.3,4.3,0,0,0,48.63,36.09Z"/>
</svg>
