<svg id="a2fec637-08af-42d9-8d6f-3c36cf709722" data-name="Layer 1" xmlns="http://www.w3.org/2000/svg" viewBox="0 0 30 49">
  <title>ribbon</title>
  <path d="M29.5,14.81c0-.65-1.13-1.29-1.22-1.86s.81-1.53.65-2.18-1.46-.89-1.7-1.46.41-1.69,0-2.26-1.62-.4-2.1-.89S25,4.38,24.48,4s-1.7.08-2.27-.32S21.64,2,21,1.72s-1.62.56-2.26.32S17.67.67,17,.5s-1.38,1-2,1-1.38-1-2-1S11.92,1.8,11.27,2,9.65,1.39,9,1.72,8.36,3.25,7.79,3.66,6,3.49,5.52,4s-.16,1.7-.65,2.18-1.7.41-2.1.89.32,1.7,0,2.26-1.54.81-1.7,1.46S1.8,12.3,1.72,13,.5,14.16.5,14.89s1.13,1.29,1.22,1.86-.81,1.53-.65,2.18,1.46.89,1.7,1.46-.41,1.69,0,2.26,1.62.4,2.1.89.09,1.78.65,2.18,1.7-.08,2.27.32S8.36,27.66,9,28s1.62-.56,2.26-.32S12.33,29,13,29.2s1.38-1,2-1,1.38,1.05,2,1,1-1.3,1.7-1.54,1.62.65,2.26.32.65-1.53,1.22-1.94,1.78.17,2.27-.32.16-1.7.65-2.18,1.7-.41,2.1-.89-.32-1.7,0-2.26,1.54-.81,1.7-1.46-.73-1.53-.65-2.18S29.5,15.54,29.5,14.81ZM15,25.8a11,11,0,1,1,11-11A11,11,0,0,1,15,25.8Zm9.23-11A9.23,9.23,0,1,1,15,5.6,9.22,9.22,0,0,1,24.23,14.81Zm-.48,12.77A2.65,2.65,0,0,0,25,27.34V48a.42.42,0,0,1-.73.32l-8.91-7.19a.39.39,0,0,0-.56,0L5.85,48.35A.45.45,0,0,1,5.12,48V27.34a2.82,2.82,0,0,0,1.21.24H6.9a3.15,3.15,0,0,0,1.46,1.86,2.17,2.17,0,0,0,1,.24,3.19,3.19,0,0,0,1.38-.32h.08a3.27,3.27,0,0,0,1.94,1.37h.33A3.51,3.51,0,0,0,15,29.92h.16a3.31,3.31,0,0,0,1.95.81h.32a3.27,3.27,0,0,0,1.94-1.37h.09a3.82,3.82,0,0,0,1.37.32,2.14,2.14,0,0,0,1-.24,3.11,3.11,0,0,0,1.46-1.86h.49Z" stroke-miterlimit: 10"/>
</svg>
