<svg id="8e26ab36-1d44-4bbf-86d3-b45ed51ee778" data-name="Layer 1" xmlns="http://www.w3.org/2000/svg" viewBox="0 0 50 50">
  <title>shield</title>
  <g>
    <path d="M24.65,0,24.5,0,5,4.39V29.28A20,20,0,0,0,20.41,49l3.92.95.26,0,4-1A20,20,0,0,0,44,29.28V4.39Zm18,29.25a18.6,18.6,0,0,1-14.36,18.4l-3.77.92-3.77-.92A18.69,18.69,0,0,1,6.37,29.27V5.5L24.5,1.42,42.63,5.5Z"/>
    <path d="M9.3,28.3A15.77,15.77,0,0,0,14,39.63l.43.39,1-1-.44-.41A14.38,14.38,0,0,1,10.67,28.3V10.09L23.43,7.22V5.8L9.3,9V28.3Z"/>
  </g>
  <g>
    <path d="M27.65,35.23c0,.08,0,.21.08.29a1.57,1.57,0,0,0,1.42,1.22,1.44,1.44,0,0,0,1.32-.94c.58-1.38,1.24-2.69,1.83-3.95a48.15,48.15,0,0,0,2.77-6.53c1.65-5.1,1.1-9.1-1.64-11.51a5.57,5.57,0,0,0-3.88-1.55,8,8,0,0,0-2.34.37,8.92,8.92,0,0,1-2.63.41A10,10,0,0,1,22,12.63a6.22,6.22,0,0,0-6.33,1.18C13,16.14,12.48,19.89,14.05,25a59,59,0,0,0,3,7.31c.51,1.14,1.06,2.28,1.58,3.5a1.48,1.48,0,0,0,1.38.94h0a1.54,1.54,0,0,0,1.36-1.18l.07-.33a1.16,1.16,0,0,0,.07-.32c.22-.86.37-1.68.52-2.49.11-.53.36-1.88.54-2.94l.19-1a4.6,4.6,0,0,1,.69-1.71,1.46,1.46,0,0,1,1-.66,1.46,1.46,0,0,1,1,.66,4.6,4.6,0,0,1,.69,1.71l.26,1.31c.18,1,.4,2.16.51,2.65.15.77.33,1.63.51,2.49ZM27,28h0a5.69,5.69,0,0,0-.82-2,2.29,2.29,0,0,0-1.62-1h-.06a2,2,0,0,0-1.58,1,5.53,5.53,0,0,0-.83,2l-.17,1c-.17,1-.41,2.22-.51,2.76-.14.73-.28,1.49-.48,2.26a1,1,0,0,0-.07.34l-.07.31a.56.56,0,0,1-.48.42.54.54,0,0,1-.52-.34c-.48-1.15-1-2.26-1.5-3.33a53.08,53.08,0,0,1-2.75-6.74c-1.37-4.37-1-7.51,1.17-9.42a4.93,4.93,0,0,1,5.11-.88,9,9,0,0,0,5.42,0,5,5,0,0,1,5.15.88c2.26,2,2.67,5.28,1.27,9.72a44.9,44.9,0,0,1-2.58,6c-.58,1.19-1.16,2.42-1.75,3.76a.57.57,0,0,1-.44.34.57.57,0,0,1-.52-.42,2.68,2.68,0,0,0-.07-.27l-.1-.38c-.21-.77-.34-1.53-.48-2.26-.1-.46-.31-1.57-.48-2.49Z"/>
    <path d="M24.58,16.06a12,12,0,0,1-3.36-.53c-2.12-.66-3.22,0-3.91.61s-2.45,2.16-.7,7.83a.47.47,0,0,0,.44.33.21.21,0,0,0,.15,0,.53.53,0,0,0,.29-.66c-1.57-5-.07-6.28.4-6.73s1.39-.94,3.11-.41a12.28,12.28,0,0,0,3.62.58h0a.53.53,0,0,0,.47-.49A.59.59,0,0,0,24.58,16.06Z"/>
  </g>
</svg>
