<svg id="5321f6ee-c657-4ce2-bb4e-0c4c78efea4d" data-name="Layer 1" xmlns="http://www.w3.org/2000/svg" viewBox="0 0 50 50">
  <title>technology</title>
  <path d="M24.64.1,4.87,11.6a2.93,2.93,0,0,0-1.45,2.54h0a.72.72,0,0,0,.72.72h19.4a.73.73,0,0,1,.73.73v8.08H17.72a2.33,2.33,0,0,0-1.78-.84h-.16a2.33,2.33,0,0,0,0,4.65H16a2.28,2.28,0,0,0,1.69-.75h5.9a.73.73,0,0,1,.73.73v9a.72.72,0,0,0,.72.72H39.42a.72.72,0,0,1,.36,1.35L25.36,46.94a.71.71,0,0,1-.72,0L6.32,36.28A.72.72,0,0,1,6,35.66v-14A.72.72,0,0,0,5.24,21H4.13a.72.72,0,0,0-.72.73V37.14a.71.71,0,0,0,.36.62L24.64,49.9a.71.71,0,0,0,.72,0L46.23,37.76a.72.72,0,0,0,.36-.62V12.86a.71.71,0,0,0-.36-.62L25.36.1A.71.71,0,0,0,24.64.1Zm-8.7,26.52h-.1a1.45,1.45,0,0,1,0-2.9h.1a1.46,1.46,0,0,1,0,2.92Zm27.38,8H26.44a.72.72,0,0,1-.72-.72v-.49a.73.73,0,0,1,.72-.73h6.37a2.22,2.22,0,0,0,1.19.69,2.07,2.07,0,0,0,.5.06,2.34,2.34,0,0,0,0-4.67,2.07,2.07,0,0,0-.5.06,2.31,2.31,0,0,0-1.28.79H26.44a.73.73,0,0,1-.72-.73v-7.4a.72.72,0,0,1,.72-.73h6.42a2.28,2.28,0,0,0,1.45.67h.19a2.34,2.34,0,0,0,0-4.67,2,2,0,0,0-.42,0,2.32,2.32,0,0,0-1.41.87H26.43a.73.73,0,0,1-.72-.73v-3.9a.72.72,0,0,0-.72-.73h0v0H11.46a.73.73,0,0,1-.36-1.36L24.64,3.06a.71.71,0,0,1,.72,0L43.68,13.71a.73.73,0,0,1,.36.62V33.9A.72.72,0,0,1,43.32,34.63ZM33.06,31.1a1.46,1.46,0,0,1,1.13-1.42,1,1,0,0,1,.25,0,1.46,1.46,0,1,1,.06,2.91,1.12,1.12,0,0,1-.32,0A1.45,1.45,0,0,1,33.06,31.1Zm0-12a1.45,1.45,0,0,1,1.18-1.43,1.51,1.51,0,0,1,.56,0,1.37,1.37,0,0,1,1.05.87,1.46,1.46,0,0,1-1.34,2h-.12A1.47,1.47,0,0,1,33.06,19.11Z"/>
</svg>
